<svg width="31" height="31" viewBox="0 0 31 31" fill="none" xmlns="http://www.w3.org/2000/svg">
	<g clip-path="url(#clip0_429_180)">
		<path
			d="M31 15.5C31 6.93867 24.0613 0 15.5 0C6.93867 0 0 6.93867 0 15.5C0 22.7656 5.00723 28.8687 11.7582 30.5459V20.2348H8.56133V15.5H11.7582V13.4596C11.7582 8.18594 14.1438 5.73984 19.3266 5.73984C20.3074 5.73984 22.0027 5.93359 22.699 6.12734V10.4141C22.3357 10.3777 21.7 10.3535 20.9068 10.3535C18.3639 10.3535 17.383 11.3162 17.383 13.8168V15.5H22.4447L21.5729 20.2348H17.377V30.885C25.0543 29.9586 31 23.4256 31 15.5Z"
			class="fill-current text-social-icon"
		/>
	</g>
	<defs>
		<clipPath>
			<rect width="31" height="31" fill="black" />
		</clipPath>
	</defs>
</svg>
