<svg width="32" height="32" viewBox="0 0 32 32" fill="none" xmlns="http://www.w3.org/2000/svg">
<rect width="32" height="32" rx="16" fill="#262626"/>
<g clip-path="url(#clip0_5721_75)">
<path d="M15.7136 11.5078C13.2406 11.5078 11.246 13.5117 11.246 15.9961C11.246 18.4805 13.2406 20.4844 15.7136 20.4844C18.1865 20.4844 20.1811 18.4805 20.1811 15.9961C20.1811 13.5117 18.1865 11.5078 15.7136 11.5078ZM15.7136 18.9141C14.1155 18.9141 12.809 17.6055 12.809 15.9961C12.809 14.3867 14.1116 13.0781 15.7136 13.0781C17.3155 13.0781 18.6181 14.3867 18.6181 15.9961C18.6181 17.6055 17.3116 18.9141 15.7136 18.9141ZM21.4059 11.3242C21.4059 11.9062 20.9394 12.3711 20.3639 12.3711C19.7845 12.3711 19.3218 11.9023 19.3218 11.3242C19.3218 10.7461 19.7884 10.2773 20.3639 10.2773C20.9394 10.2773 21.4059 10.7461 21.4059 11.3242ZM24.3649 12.3867C24.2988 10.9844 23.98 9.74219 22.9574 8.71875C21.9386 7.69531 20.7022 7.375 19.3063 7.30469C17.8676 7.22266 13.5556 7.22266 12.1169 7.30469C10.7249 7.37109 9.48847 7.69141 8.46586 8.71484C7.44325 9.73828 7.1283 10.9805 7.05831 12.3828C6.97666 13.8281 6.97666 18.1602 7.05831 19.6055C7.12441 21.0078 7.44325 22.25 8.46586 23.2734C9.48847 24.2969 10.721 24.6172 12.1169 24.6875C13.5556 24.7695 17.8676 24.7695 19.3063 24.6875C20.7022 24.6211 21.9386 24.3008 22.9574 23.2734C23.9761 22.25 24.2949 21.0078 24.3649 19.6055C24.4466 18.1602 24.4466 13.832 24.3649 12.3867ZM22.5063 21.1562C22.203 21.9219 21.6159 22.5117 20.8499 22.8203C19.7029 23.2773 16.9811 23.1719 15.7136 23.1719C14.446 23.1719 11.7203 23.2734 10.5772 22.8203C9.81508 22.5156 9.22795 21.9258 8.92078 21.1562C8.46586 20.0039 8.57084 17.2695 8.57084 15.9961C8.57084 14.7227 8.46974 11.9844 8.92078 10.8359C9.22406 10.0703 9.81119 9.48047 10.5772 9.17187C11.7242 8.71484 14.446 8.82031 15.7136 8.82031C16.9811 8.82031 19.7068 8.71875 20.8499 9.17187C21.612 9.47656 22.1991 10.0664 22.5063 10.8359C22.9612 11.9883 22.8563 14.7227 22.8563 15.9961C22.8563 17.2695 22.9612 20.0078 22.5063 21.1562Z" fill="#FFFCEF"/>
</g>
<defs>
<clipPath id="clip0_5721_75">
<rect width="17.4194" height="20" fill="white" transform="translate(7 6)"/>
</clipPath>
</defs>
</svg>
