<svg width="32" height="32" viewBox="0 0 32 32" fill="none" xmlns="http://www.w3.org/2000/svg">
<rect width="32" height="32" rx="16" fill="#262626"/>
<g clip-path="url(#clip0_5721_69)">
<path d="M24.4194 14.1992C22.7069 14.2029 21.0367 13.6659 19.6446 12.6641V19.6484C19.6442 20.942 19.2507 22.2046 18.5167 23.2673C17.7826 24.3301 16.7431 25.1424 15.5371 25.5955C14.3312 26.0487 13.0162 26.1211 11.7681 25.8031C10.5201 25.4852 9.39839 24.7919 8.55312 23.8161C7.70785 22.8404 7.17928 21.6286 7.03812 20.3428C6.89695 19.0571 7.14991 17.7587 7.76317 16.6213C8.37643 15.4839 9.32074 14.5617 10.4698 13.9781C11.6189 13.3945 12.918 13.1773 14.1933 13.3555V16.8672C13.6101 16.6828 12.9839 16.6882 12.404 16.8826C11.8241 17.077 11.3202 17.4506 10.9642 17.9499C10.6082 18.4492 10.4183 19.0487 10.4217 19.6629C10.4251 20.2771 10.6215 20.8744 10.983 21.3698C11.3445 21.8651 11.8525 22.233 12.4345 22.421C13.0165 22.609 13.6427 22.6074 14.2238 22.4165C14.8049 22.2256 15.3111 21.8552 15.6701 21.3581C16.0291 20.861 16.2226 20.2626 16.2229 19.6484V6H19.6446C19.6427 6.29073 19.6674 6.58102 19.7185 6.86719C19.8375 7.50508 20.0847 8.11189 20.445 8.65054C20.8054 9.1892 21.2713 9.64837 21.8142 10C22.5871 10.5128 23.4931 10.7859 24.4194 10.7852V14.1992Z" fill="#FFFCEF"/>
</g>
<defs>
<clipPath id="clip0_5721_69">
<rect width="17.4194" height="20" fill="white" transform="translate(7 6)"/>
</clipPath>
</defs>
</svg>
