<svg width="32" height="32" viewBox="0 0 32 32" fill="none" xmlns="http://www.w3.org/2000/svg">
<rect width="32" height="32" rx="16" fill="#262626"/>
<path d="M21 7.50005C21 7.36745 20.9473 7.24027 20.8536 7.1465C20.7598 7.05273 20.6326 7.00005 20.5 7.00005H18C16.7411 6.93734 15.5086 7.37544 14.5717 8.21863C13.6348 9.06182 13.0698 10.2415 13 11.5001V14.2001H10.5C10.3674 14.2001 10.2402 14.2527 10.1464 14.3465C10.0527 14.4403 10 14.5674 10 14.7001V17.3001C10 17.4327 10.0527 17.5598 10.1464 17.6536C10.2402 17.7474 10.3674 17.8001 10.5 17.8001H13V24.5001C13 24.6327 13.0527 24.7598 13.1464 24.8536C13.2402 24.9474 13.3674 25.0001 13.5 25.0001H16.5C16.6326 25.0001 16.7598 24.9474 16.8536 24.8536C16.9473 24.7598 17 24.6327 17 24.5001V17.8001H19.62C19.7312 17.8016 19.8397 17.7661 19.9285 17.6991C20.0172 17.6321 20.0811 17.5374 20.11 17.4301L20.83 14.8301C20.8499 14.7562 20.8526 14.6787 20.8378 14.6036C20.8231 14.5286 20.7913 14.4579 20.7449 14.397C20.6985 14.3362 20.6388 14.2868 20.5704 14.2526C20.5019 14.2185 20.4265 14.2005 20.35 14.2001H17V11.5001C17.0249 11.2525 17.1411 11.0232 17.326 10.8567C17.5109 10.6903 17.7512 10.5988 18 10.6001H20.5C20.6326 10.6001 20.7598 10.5474 20.8536 10.4536C20.9473 10.3598 21 10.2327 21 10.1001V7.50005Z" fill="#FFFCEF"/>
</svg>
