<svg width="32" height="32" viewBox="0 0 32 32" fill="none" xmlns="http://www.w3.org/2000/svg">
<rect width="32" height="32" rx="16" fill="#262626"/>
<path d="M25.0868 11.4435C24.868 10.5949 24.2257 9.92887 23.4097 9.70329C21.9305 9.2915 16 9.2915 16 9.2915C16 9.2915 10.0694 9.2915 8.59025 9.70329C7.77428 9.92887 7.13192 10.5949 6.91317 11.4435C6.51733 12.9797 6.51733 16.1808 6.51733 16.1808C6.51733 16.1808 6.51733 19.382 6.91317 20.9181C7.13192 21.7668 7.77428 22.4041 8.59025 22.6297C10.0694 23.0415 16 23.0415 16 23.0415C16 23.0415 21.9305 23.0415 23.4097 22.6297C24.2257 22.4041 24.868 21.7632 25.0868 20.9181C25.4826 19.382 25.4826 16.1808 25.4826 16.1808C25.4826 16.1808 25.4826 12.9797 25.0868 11.4435ZM14.0625 19.0884V13.2733L19.0173 16.1808L14.0625 19.0884Z" fill="#FFFCEF"/>
</svg>
